<?xml version="1.0" encoding="UTF-8"?>
<svg xmlns="http://www.w3.org/2000/svg" viewBox="0 0 1024 1024" role="img" aria-label="Meccha Chameleon Play Online">
  <title>Meccha Chameleon Play Online</title>
  <defs>
    <linearGradient id="macaronBg" x1="116" y1="124" x2="908" y2="900" gradientUnits="userSpaceOnUse">
      <stop offset="0" stop-color="#ffe27a"/>
      <stop offset="0.24" stop-color="#ff8fb3"/>
      <stop offset="0.5" stop-color="#9de7dc"/>
      <stop offset="0.76" stop-color="#9fb7ff"/>
      <stop offset="1" stop-color="#d9b7ff"/>
    </linearGradient>
    <linearGradient id="chameleonBody" x1="286" y1="302" x2="764" y2="736" gradientUnits="userSpaceOnUse">
      <stop offset="0" stop-color="#8ff2b0"/>
      <stop offset="0.34" stop-color="#4fd8bb"/>
      <stop offset="0.66" stop-color="#61a8ff"/>
      <stop offset="1" stop-color="#b88cff"/>
    </linearGradient>
    <linearGradient id="tailGrad" x1="170" y1="442" x2="570" y2="804" gradientUnits="userSpaceOnUse">
      <stop offset="0" stop-color="#ff9ab7"/>
      <stop offset="0.45" stop-color="#ffcf64"/>
      <stop offset="1" stop-color="#64dfc5"/>
    </linearGradient>
    <filter id="softShadow" x="-20%" y="-20%" width="140%" height="140%">
      <feDropShadow dx="0" dy="22" stdDeviation="24" flood-color="#4b2f54" flood-opacity="0.22"/>
    </filter>
  </defs>

  <rect x="44" y="44" width="936" height="936" rx="224" fill="url(#macaronBg)"/>
  <circle cx="204" cy="202" r="92" fill="#fff4be" opacity="0.95"/>
  <circle cx="814" cy="212" r="86" fill="#c8f7ef" opacity="0.92"/>
  <circle cx="838" cy="812" r="106" fill="#ffd1dc" opacity="0.92"/>
  <circle cx="188" cy="796" r="84" fill="#d8c7ff" opacity="0.92"/>

  <g filter="url(#softShadow)">
    <path d="M530 752c-142 10-274-42-318-144-42-98 10-205 111-254 96-47 209-26 271 46 27 32 38 68 30 101-9 38-40 66-79 71-42 6-79-16-91-51-9-28 6-58 35-69 23-9 49-2 62 16 12 17 7 39-11 49-11 6-25 6-36-1 8 22 42 33 70 16 34-20 42-67 16-105-45-65-153-78-232-28-81 51-102 143-47 211 62 77 205 99 332 46 45-19 83-45 116-78 31-32 85 4 65 46-46 98-157 171-294 181z" fill="url(#tailGrad)"/>

    <path d="M288 642c0-134 107-244 255-244h96c101 0 183 82 183 183s-82 183-183 183H410c-67 0-122-55-122-122z" fill="url(#chameleonBody)"/>
    <path d="M608 397h70c74 0 135 60 135 135 0 18-4 35-10 51-36-77-119-129-214-129H471c-52 0-101 14-143 39 45-59 115-96 215-96h65z" fill="#ffffff" opacity="0.22"/>

    <circle cx="679" cy="520" r="76" fill="#fff7d6"/>
    <circle cx="706" cy="511" r="35" fill="#302338"/>
    <circle cx="718" cy="497" r="11" fill="#ffffff"/>

    <path d="M752 594l102 58-102 58z" fill="#ffffff"/>
    <path d="M752 594l102 58-102 58z" fill="#ff6f9a" opacity="0.82"/>

    <rect x="389" y="572" width="206" height="92" rx="46" fill="#fff6de"/>
    <circle cx="458" cy="618" r="18" fill="#68d8c2"/>
    <circle cx="522" cy="618" r="18" fill="#ff8fab"/>
    <path d="M593 606h44v24h-44z" fill="#776bff"/>
    <path d="M603 596h24v44h-24z" fill="#776bff"/>

    <g>
      <circle cx="294" cy="294" r="42" fill="#ffffff"/>
      <circle cx="294" cy="277" r="14" fill="#ff6f9a"/>
      <path d="M264 322c7-23 52-23 60 0z" fill="#ff6f9a"/>
    </g>
    <g>
      <circle cx="744" cy="286" r="42" fill="#ffffff"/>
      <circle cx="744" cy="269" r="14" fill="#61a8ff"/>
      <path d="M714 314c7-23 52-23 60 0z" fill="#61a8ff"/>
    </g>
    <g>
      <circle cx="810" cy="742" r="42" fill="#ffffff"/>
      <circle cx="810" cy="725" r="14" fill="#ffcf64"/>
      <path d="M780 770c7-23 52-23 60 0z" fill="#ffcf64"/>
    </g>
  </g>
</svg>
